# xmcd CD database file
#
# Track frame offsets:
#	150
#	13370
#	24708
#	37849
#	52008
#	63326
#	77737
#	87651
#	100142
#	111941
#	123568
#	138162
#	152153
#	166470
#	180124
#	196055
#
# Disc length: 2797 seconds
#
# Revision: 0
# Processed by: cddbd v1.5PL3 Copyright (c) Steve Scherf et al.
# Submitted via: CDex 1.51
#
DISCID=d00aeb10
DTITLE=Various Artist - little Book Of Cocktails
DYEAR=1900
DGENRE=Jazz
TTITLE0=Lionel Hampton/Flying Home
TTITLE1=Hoagy Carmichael/Am I Blue
TTITLE2=Larry Adler/Caravan
TTITLE3=Cugat/Cumparasita
TTITLE4=Sara Vaughan/Interlude
TTITLE5=Coleman Hawkins/I Only Have Eyes For you
TTITLE6=Perry Como/I've got a feeling I'm falling
TTITLE7=Benny Goodman/Rosetta
TTITLE8=Edmundo Ross/Mambo Jambo
TTITLE9=Miles Davis/Perhaps
TTITLE10=Frank Sinatra/Fools rush in
TTITLE11=Errol Garner/Memories of you
TTITLE12=Billie holiday/nice work if you can get it
TTITLE13=Duke Ellington/Moonglow
TTITLE14=Ray Noble/The very thought of you
TTITLE15=Peggy Lee/Linger in my arms a little longer baby
EXTD=
EXTT0=
EXTT1=
EXTT2=
EXTT3=
EXTT4=
EXTT5=
EXTT6=
EXTT7=
EXTT8=
EXTT9=
EXTT10=
EXTT11=
EXTT12=
EXTT13=
EXTT14=
EXTT15=
PLAYORDER=
